<svg xmlns="http://www.w3.org/2000/svg" xmlns:xlink="http://www.w3.org/1999/xlink" width="500" zoomAndPan="magnify" viewBox="0 0 375 374.999991" height="500" preserveAspectRatio="xMidYMid meet" version="1.0"><defs><clipPath id="c45363338f"><path d="M 13.90625 158 L 313.90625 158 L 313.90625 332 L 13.90625 332 Z M 13.90625 158 " clip-rule="nonzero"/></clipPath><clipPath id="d35f93e1b1"><path d="M 13.90625 211.785156 L 313.90625 211.785156 L 313.90625 345.703125 L 13.90625 345.703125 Z M 13.90625 211.785156 " clip-rule="nonzero"/></clipPath><clipPath id="4356aa4e45"><path d="M 107 211.785156 L 313.90625 211.785156 L 313.90625 345.703125 L 107 345.703125 Z M 107 211.785156 " clip-rule="nonzero"/></clipPath><clipPath id="666aaba731"><path d="M 170.839844 44.613281 L 314.089844 44.613281 L 314.089844 187.863281 L 170.839844 187.863281 Z M 170.839844 44.613281 " clip-rule="nonzero"/></clipPath></defs><path fill="#314049" d="M 310.691406 219.140625 C 309.328125 220.753906 307.472656 222.242188 305.121094 223.605469 L 127.101562 326.605469 C 116.460938 332.679688 100.378906 333.425781 91.226562 328.09375 L 20.089844 286.941406 C 18.855469 286.324219 17.863281 285.578125 17.121094 284.710938 C 18.484375 283.101562 20.339844 281.613281 22.6875 280.25 L 200.710938 177.246094 C 211.347656 171.171875 227.433594 170.429688 236.585938 175.757812 L 307.71875 216.910156 C 308.835938 217.53125 309.824219 218.273438 310.691406 219.140625 " fill-opacity="1" fill-rule="nonzero"/><g clip-path="url(#c45363338f)"><path fill="#526979" d="M 313.90625 211.828125 C 313.90625 214.308594 312.917969 216.785156 310.6875 219.140625 C 309.328125 220.753906 307.472656 222.242188 305.121094 223.605469 L 127.101562 326.605469 C 116.460938 332.679688 100.378906 333.425781 91.226562 328.09375 L 20.089844 286.941406 C 18.855469 286.324219 17.863281 285.578125 17.121094 284.710938 C 14.894531 282.726562 13.90625 280.25 13.90625 277.894531 C 13.90625 273.804688 16.875 269.589844 22.6875 266.242188 L 200.707031 163.242188 C 211.347656 157.042969 227.433594 156.421875 236.585938 161.753906 L 307.71875 202.78125 C 311.925781 205.136719 313.90625 208.480469 313.90625 211.828125 " fill-opacity="1" fill-rule="nonzero"/></g><path fill="#ffffff" d="M 125.851562 321.800781 L 30.964844 266.917969 L 201.972656 167.996094 L 296.855469 222.882812 L 125.851562 321.800781 " fill-opacity="1" fill-rule="nonzero"/><path fill="#314049" d="M 273.902344 199.753906 L 241.953125 181.273438 L 245.714844 179.09375 L 277.667969 197.578125 L 273.902344 199.753906 " fill-opacity="1" fill-rule="nonzero"/><path fill="#314049" d="M 75.46875 306.117188 C 70.667969 308.894531 62.882812 308.894531 58.082031 306.117188 C 53.277344 303.339844 53.277344 298.835938 58.082031 296.058594 C 62.882812 293.28125 70.667969 293.28125 75.46875 296.058594 C 80.273438 298.835938 80.273438 303.339844 75.46875 306.117188 " fill-opacity="1" fill-rule="nonzero"/><path fill="#526979" d="M 73.167969 304.785156 C 69.636719 306.828125 63.914062 306.828125 60.382812 304.785156 C 56.855469 302.742188 56.855469 299.433594 60.382812 297.390625 C 63.914062 295.347656 69.636719 295.347656 73.167969 297.390625 C 76.695312 299.433594 76.695312 302.742188 73.167969 304.785156 " fill-opacity="1" fill-rule="nonzero"/><path fill="#d0cfec" d="M 289.316406 227.242188 L 194.433594 172.355469 L 201.972656 167.996094 L 296.855469 222.882812 L 289.316406 227.242188 " fill-opacity="1" fill-rule="nonzero"/><path fill="#72c2ed" d="M 139.5625 313.871094 L 44.679688 258.984375 L 30.964844 266.914062 L 125.851562 321.800781 L 139.5625 313.871094 " fill-opacity="1" fill-rule="nonzero"/><path fill="#d0cfec" d="M 88.980469 292.542969 C 86.929688 293.730469 83.601562 293.730469 81.546875 292.542969 C 79.496094 291.355469 79.496094 289.429688 81.546875 288.242188 C 83.601562 287.054688 86.929688 287.054688 88.980469 288.242188 C 91.035156 289.429688 91.035156 291.355469 88.980469 292.542969 " fill-opacity="1" fill-rule="nonzero"/><path fill="#d0cfec" d="M 113.5 306.726562 C 115.3125 305.675781 115.3125 303.976562 113.5 302.925781 C 111.6875 301.878906 108.746094 301.878906 106.933594 302.925781 C 105.117188 303.976562 105.117188 305.675781 106.933594 306.726562 C 108.746094 307.777344 111.6875 307.777344 113.5 306.726562 " fill-opacity="1" fill-rule="nonzero"/><path fill="#d0cfec" d="M 57.027344 274.058594 C 58.84375 273.011719 61.78125 273.011719 63.597656 274.058594 C 65.410156 275.109375 65.410156 276.808594 63.597656 277.859375 C 61.785156 278.910156 58.84375 278.910156 57.027344 277.859375 C 55.214844 276.808594 55.214844 275.109375 57.027344 274.058594 " fill-opacity="1" fill-rule="nonzero"/><g clip-path="url(#d35f93e1b1)"><path fill="#314049" d="M 313.90625 211.828125 L 313.90625 225.960938 C 313.90625 230.050781 310.9375 234.386719 305.121094 237.734375 L 127.101562 340.738281 C 121.410156 344.082031 113.988281 345.695312 107.058594 345.695312 C 101.121094 345.820312 95.429688 344.578125 91.226562 342.222656 L 20.089844 301.074219 C 15.886719 298.71875 13.90625 295.371094 13.90625 292.023438 L 13.90625 277.894531 C 13.90625 280.25 14.894531 282.726562 17.121094 284.710938 C 17.863281 285.578125 18.855469 286.324219 20.089844 286.941406 L 91.226562 328.09375 C 95.429688 330.574219 101.121094 331.6875 107.058594 331.6875 C 113.988281 331.6875 121.410156 329.953125 127.101562 326.605469 L 305.121094 223.605469 C 307.472656 222.242188 309.328125 220.753906 310.6875 219.140625 C 312.917969 216.785156 313.90625 214.308594 313.90625 211.828125 " fill-opacity="1" fill-rule="nonzero"/></g><g clip-path="url(#4356aa4e45)"><path fill="#232c33" d="M 313.90625 211.828125 L 313.90625 225.960938 C 313.90625 230.050781 310.9375 234.386719 305.121094 237.734375 L 127.101562 340.738281 C 121.410156 344.082031 113.988281 345.695312 107.058594 345.695312 L 107.058594 331.6875 C 113.988281 331.6875 121.410156 329.953125 127.101562 326.605469 L 305.121094 223.605469 C 307.472656 222.242188 309.328125 220.753906 310.6875 219.140625 C 312.917969 216.785156 313.90625 214.308594 313.90625 211.828125 " fill-opacity="1" fill-rule="nonzero"/></g><path fill="#e69c31" d="M 285.742188 213.238281 L 141.628906 296.601562 L 46.707031 241.691406 L 190.820312 158.328125 L 285.742188 213.238281 " fill-opacity="1" fill-rule="nonzero"/><path fill="#d0cfec" d="M 188.769531 219.503906 L 98.5625 271.6875 L 95.882812 270.136719 L 186.089844 217.957031 C 189.488281 215.988281 191.695312 213.472656 192.4375 210.8125 L 195.566406 198.714844 L 196.160156 196.390625 L 203.996094 165.949219 L 207.535156 167.996094 L 196.417969 210.867188 C 195.617188 214.058594 192.898438 217.117188 188.769531 219.503906 " fill-opacity="1" fill-rule="nonzero"/><path fill="#72c2ed" d="M 207.921875 258.253906 L 195.660156 265.347656 C 193.824219 258.105469 192.992188 248.917969 196.019531 239.855469 C 202.367188 220.070312 215.632812 229.003906 235.019531 210.722656 C 243.890625 202.371094 246.019531 195.3125 245.566406 189.996094 L 269.03125 203.570312 C 266.671875 206.417969 263.480469 209.628906 258.917969 212.890625 C 235.585938 229.734375 224.832031 219.71875 214.089844 239.070312 C 210.433594 245.523438 208.683594 252.234375 207.921875 258.253906 " fill-opacity="1" fill-rule="nonzero"/><path fill="#d0cfec" d="M 143.046875 244.464844 L 140.011719 246.222656 L 89.445312 216.96875 L 92.480469 215.214844 L 143.046875 244.464844 " fill-opacity="1" fill-rule="nonzero"/><path fill="#d0cfec" d="M 174.53125 277.570312 L 171.496094 279.324219 L 152.960938 268.605469 L 153.125 268.136719 L 160.964844 235.589844 L 161.765625 232.398438 L 165.863281 232.382812 L 165.703125 232.851562 L 157.285156 267.589844 L 174.53125 277.570312 " fill-opacity="1" fill-rule="nonzero"/><path fill="#d0cfec" d="M 197.015625 198.996094 L 195.566406 198.714844 L 136.066406 190 L 139.464844 188.035156 L 196.160156 196.390625 L 198.507812 196.765625 L 197.015625 198.996094 " fill-opacity="1" fill-rule="nonzero"/><path fill="#da8617" d="M 193.738281 171.414062 L 188.414062 188.421875 L 172.175781 186.921875 L 180.460938 170.546875 L 193.738281 171.414062 " fill-opacity="1" fill-rule="nonzero"/><path fill="#da8617" d="M 182.777344 204.496094 L 181.488281 215.199219 L 155.703125 230.113281 L 147.097656 225.136719 L 168.089844 212.992188 L 170.464844 202.769531 L 182.777344 204.496094 " fill-opacity="1" fill-rule="nonzero"/><path fill="#da8617" d="M 159.679688 211.773438 L 141.839844 222.09375 L 130.363281 215.457031 L 148.203125 205.136719 L 159.679688 211.773438 " fill-opacity="1" fill-rule="nonzero"/><path fill="#da8617" d="M 126.09375 217.925781 L 151.433594 232.585938 L 140.175781 239.097656 L 114.835938 224.4375 L 126.09375 217.925781 " fill-opacity="1" fill-rule="nonzero"/><path fill="#da8617" d="M 132.167969 198.480469 L 141.882812 204.101562 L 115.832031 219.171875 L 106.976562 214.050781 L 132.167969 198.480469 " fill-opacity="1" fill-rule="nonzero"/><path fill="#da8617" d="M 214.472656 186.71875 L 210.078125 202.097656 L 223.089844 203 L 229.0625 187.679688 L 214.472656 186.71875 " fill-opacity="1" fill-rule="nonzero"/><path fill="#da8617" d="M 118.632812 242.15625 L 91.757812 257.703125 L 99.886719 262.402344 L 126.761719 246.855469 L 118.632812 242.15625 " fill-opacity="1" fill-rule="nonzero"/><path fill="#da8617" d="M 96.3125 230.460938 L 111.84375 239.445312 L 104.464844 243.714844 L 88.933594 234.730469 L 96.3125 230.460938 " fill-opacity="1" fill-rule="nonzero"/><path fill="#da8617" d="M 83.929688 237.625 L 99.457031 246.609375 L 86.019531 254.382812 L 71.761719 246.132812 L 83.929688 237.625 " fill-opacity="1" fill-rule="nonzero"/><path fill="#da8617" d="M 82.347656 226.023438 L 88.308594 229.472656 L 71.589844 240.851562 L 63.675781 238.105469 L 82.347656 226.023438 " fill-opacity="1" fill-rule="nonzero"/><path fill="#da8617" d="M 137.808594 254.464844 L 116.277344 268.53125 L 126.820312 271.582031 L 145.710938 259.039062 L 137.808594 254.464844 " fill-opacity="1" fill-rule="nonzero"/><path fill="#da8617" d="M 133.351562 273.992188 L 124.789062 278.945312 L 142.691406 289.300781 L 151.308594 282.703125 L 133.351562 273.992188 " fill-opacity="1" fill-rule="nonzero"/><path fill="#da8617" d="M 173.246094 237.3125 L 168.347656 255.394531 L 179.019531 255.054688 L 185.472656 237.015625 L 173.246094 237.3125 " fill-opacity="1" fill-rule="nonzero"/><path fill="#da8617" d="M 141.625 303.046875 L 46.703125 248.136719 L 46.703125 241.636719 L 141.625 296.546875 L 141.625 303.046875 " fill-opacity="1" fill-rule="nonzero"/><path fill="#c26f1b" d="M 285.742188 219.679688 L 141.625 303.046875 L 141.625 296.546875 L 285.742188 213.179688 L 285.742188 219.679688 " fill-opacity="1" fill-rule="nonzero"/><path fill="#f03951" d="M 148.246094 157.496094 L 154.699219 153.738281 C 158.480469 151.539062 163.722656 151.855469 169.519531 155.207031 L 163.066406 158.964844 C 157.269531 155.613281 152.027344 155.296875 148.246094 157.496094 " fill-opacity="1" fill-rule="nonzero"/><path fill="#ed1d24" d="M 163.066406 158.964844 C 174.523438 165.59375 183.847656 181.707031 183.8125 194.96875 C 183.773438 208.230469 163.898438 233.367188 162.851562 234.691406 C 161.816406 232.164062 142.144531 184.148438 142.183594 170.886719 C 142.222656 157.628906 151.546875 152.304688 163.066406 158.964844 " fill-opacity="1" fill-rule="nonzero"/><path fill="#f03951" d="M 163.066406 158.964844 L 169.519531 155.207031 C 180.976562 161.835938 190.300781 177.953125 190.265625 191.210938 C 190.226562 204.472656 170.351562 229.609375 169.304688 230.933594 L 162.851562 234.691406 C 163.898438 233.367188 183.773438 208.230469 183.8125 194.96875 C 183.847656 181.707031 174.523438 165.59375 163.066406 158.964844 " fill-opacity="1" fill-rule="nonzero"/><path fill="#ffffff" d="M 177.707031 192.894531 C 177.707031 202.292969 171.121094 206.101562 162.996094 201.402344 C 154.871094 196.703125 148.285156 185.273438 148.285156 175.875 C 148.285156 166.472656 154.871094 162.664062 162.996094 167.363281 C 171.121094 172.0625 177.707031 183.492188 177.707031 192.894531 " fill-opacity="1" fill-rule="nonzero"/><g clip-path="url(#666aaba731)"><path fill="#00bf63" d="M 314.039062 116.195312 C 314.039062 120.058594 313.726562 123.941406 313.109375 127.730469 C 312.871094 129.203125 312.585938 130.660156 312.257812 132.109375 C 308.882812 147 300.757812 160.53125 289.078125 170.582031 C 276.117188 181.726562 259.558594 187.863281 242.460938 187.863281 C 202.988281 187.863281 170.878906 155.710938 170.878906 116.195312 C 170.878906 77.847656 201.113281 46.4375 238.960938 44.613281 L 238.960938 74.902344 C 216.894531 76.6875 199.480469 95.238281 199.480469 117.789062 C 199.480469 141.511719 218.761719 160.816406 242.460938 160.816406 C 260.886719 160.816406 277.042969 149.0625 283 132.109375 L 238.960938 132.105469 L 238.960938 103.46875 L 313.0625 103.46875 L 313.582031 108.097656 C 313.890625 110.78125 314.039062 113.5 314.039062 116.195312 " fill-opacity="1" fill-rule="evenodd"/></g></svg>